<svg width="86" height="10" viewBox="0 0 86 10" fill="none" xmlns="http://www.w3.org/2000/svg">
<path d="M85.5843 5.5626C85.7071 5.43971 85.7071 5.24047 85.5843 5.11758L83.5816 3.11497C83.4588 2.99208 83.2595 2.99208 83.1366 3.11497C83.0137 3.23786 83.0137 3.43711 83.1366 3.56L84.9167 5.34009L83.1366 7.12018C83.0137 7.24307 83.0137 7.44231 83.1366 7.5652C83.2595 7.68809 83.4588 7.68809 83.5816 7.5652L85.5843 5.5626ZM2.32942 5.65477C2.50321 5.65477 2.6441 5.51388 2.6441 5.34009C2.6441 5.1663 2.50321 5.02541 2.32942 5.02541V5.65477ZM6.19139 5.02541C6.0176 5.02541 5.87671 5.1663 5.87671 5.34009C5.87671 5.51388 6.0176 5.65477 6.19139 5.65477V5.02541ZM10.0534 5.65477C10.2271 5.65477 10.368 5.51388 10.368 5.34009C10.368 5.1663 10.2271 5.02541 10.0534 5.02541V5.65477ZM13.9153 5.02541C13.7415 5.02541 13.6006 5.1663 13.6006 5.34009C13.6006 5.51388 13.7415 5.65477 13.9153 5.65477V5.02541ZM17.7773 5.65477C17.9511 5.65477 18.092 5.51388 18.092 5.34009C18.092 5.1663 17.9511 5.02541 17.7773 5.02541V5.65477ZM21.6393 5.02541C21.4655 5.02541 21.3246 5.1663 21.3246 5.34009C21.3246 5.51388 21.4655 5.65477 21.6393 5.65477V5.02541ZM25.5012 5.65477C25.675 5.65477 25.8159 5.51388 25.8159 5.34009C25.8159 5.1663 25.675 5.02541 25.5012 5.02541V5.65477ZM29.3632 5.02541C29.1894 5.02541 29.0485 5.1663 29.0485 5.34009C29.0485 5.51388 29.1894 5.65477 29.3632 5.65477V5.02541ZM33.2252 5.65477C33.399 5.65477 33.5398 5.51388 33.5398 5.34009C33.5398 5.1663 33.399 5.02541 33.2252 5.02541V5.65477ZM37.0871 5.02541C36.9133 5.02541 36.7725 5.1663 36.7725 5.34009C36.7725 5.51388 36.9133 5.65477 37.0871 5.65477V5.02541ZM40.9491 5.65477C41.1229 5.65477 41.2638 5.51388 41.2638 5.34009C41.2638 5.1663 41.1229 5.02541 40.9491 5.02541V5.65477ZM44.8111 5.02541C44.6373 5.02541 44.4964 5.1663 44.4964 5.34009C44.4964 5.51388 44.6373 5.65477 44.8111 5.65477V5.02541ZM48.673 5.65477C48.8468 5.65477 48.9877 5.51388 48.9877 5.34009C48.9877 5.1663 48.8468 5.02541 48.673 5.02541V5.65477ZM52.535 5.02541C52.3612 5.02541 52.2203 5.1663 52.2203 5.34009C52.2203 5.51388 52.3612 5.65477 52.535 5.65477V5.02541ZM56.397 5.65477C56.5708 5.65477 56.7117 5.51388 56.7117 5.34009C56.7117 5.1663 56.5708 5.02541 56.397 5.02541V5.65477ZM60.259 5.02541C60.0852 5.02541 59.9443 5.1663 59.9443 5.34009C59.9443 5.51388 60.0852 5.65477 60.259 5.65477V5.02541ZM64.1209 5.65477C64.2947 5.65477 64.4356 5.51388 64.4356 5.34009C64.4356 5.1663 64.2947 5.02541 64.1209 5.02541V5.65477ZM67.9829 5.02541C67.8091 5.02541 67.6682 5.1663 67.6682 5.34009C67.6682 5.51388 67.8091 5.65477 67.9829 5.65477V5.02541ZM71.8449 5.65477C72.0186 5.65477 72.1595 5.51388 72.1595 5.34009C72.1595 5.1663 72.0186 5.02541 71.8449 5.02541V5.65477ZM75.7068 5.02541C75.533 5.02541 75.3921 5.1663 75.3921 5.34009C75.3921 5.51388 75.533 5.65477 75.7068 5.65477V5.02541ZM79.5688 5.65477C79.7426 5.65477 79.8835 5.51388 79.8835 5.34009C79.8835 5.1663 79.7426 5.02541 79.5688 5.02541V5.65477ZM83.4308 5.02541C83.257 5.02541 83.1161 5.1663 83.1161 5.34009C83.1161 5.51388 83.257 5.65477 83.4308 5.65477V5.02541ZM0.398438 5.65477H2.32942V5.02541H0.398438V5.65477ZM6.19139 5.65477H10.0534V5.02541H6.19139V5.65477ZM13.9153 5.65477H17.7773V5.02541H13.9153V5.65477ZM21.6393 5.65477H25.5012V5.02541H21.6393V5.65477ZM29.3632 5.65477H33.2252V5.02541H29.3632V5.65477ZM37.0871 5.65477H40.9491V5.02541H37.0871V5.65477ZM44.8111 5.65477H48.673V5.02541H44.8111V5.65477ZM52.535 5.65477H56.397V5.02541H52.535V5.65477ZM60.259 5.65477H64.1209V5.02541H60.259V5.65477ZM67.9829 5.65477H71.8449V5.02541H67.9829V5.65477ZM75.7068 5.65477H79.5688V5.02541H75.7068V5.65477ZM83.4308 5.65477H85.3617V5.02541H83.4308V5.65477ZM85.8068 5.78511C86.0525 5.53933 86.0525 5.14084 85.8068 4.89506L81.8016 0.889856C81.5558 0.644077 81.1573 0.644077 80.9115 0.889856C80.6657 1.13564 80.6657 1.53412 80.9115 1.7799L84.4717 5.34009L80.9115 8.90027C80.6657 9.14605 80.6657 9.54454 80.9115 9.79032C81.1573 10.0361 81.5558 10.0361 81.8016 9.79032L85.8068 5.78511ZM2.32942 5.96945C2.67701 5.96945 2.95878 5.68767 2.95878 5.34009C2.95878 4.9925 2.67701 4.71073 2.32942 4.71073V5.96945ZM6.19139 4.71073C5.84381 4.71073 5.56203 4.9925 5.56203 5.34009C5.56203 5.68767 5.84381 5.96945 6.19139 5.96945V4.71073ZM10.0534 5.96945C10.4009 5.96945 10.6827 5.68767 10.6827 5.34009C10.6827 4.9925 10.4009 4.71073 10.0534 4.71073V5.96945ZM13.9153 4.71073C13.5677 4.71073 13.286 4.9925 13.286 5.34009C13.286 5.68767 13.5677 5.96945 13.9153 5.96945V4.71073ZM17.7773 5.96945C18.1249 5.96945 18.4067 5.68767 18.4067 5.34009C18.4067 4.9925 18.1249 4.71073 17.7773 4.71073V5.96945ZM21.6393 4.71073C21.2917 4.71073 21.0099 4.9925 21.0099 5.34009C21.0099 5.68767 21.2917 5.96945 21.6393 5.96945V4.71073ZM25.5012 5.96945C25.8488 5.96945 26.1306 5.68767 26.1306 5.34009C26.1306 4.9925 25.8488 4.71073 25.5012 4.71073V5.96945ZM29.3632 4.71073C29.0156 4.71073 28.7338 4.9925 28.7338 5.34009C28.7338 5.68767 29.0156 5.96945 29.3632 5.96945V4.71073ZM33.2252 5.96945C33.5728 5.96945 33.8545 5.68767 33.8545 5.34009C33.8545 4.9925 33.5728 4.71073 33.2252 4.71073V5.96945ZM37.0871 4.71073C36.7396 4.71073 36.4578 4.9925 36.4578 5.34009C36.4578 5.68767 36.7396 5.96945 37.0871 5.96945V4.71073ZM40.9491 5.96945C41.2967 5.96945 41.5785 5.68767 41.5785 5.34009C41.5785 4.9925 41.2967 4.71073 40.9491 4.71073V5.96945ZM44.8111 4.71073C44.4635 4.71073 44.1817 4.9925 44.1817 5.34009C44.1817 5.68767 44.4635 5.96945 44.8111 5.96945V4.71073ZM48.673 5.96945C49.0206 5.96945 49.3024 5.68767 49.3024 5.34009C49.3024 4.9925 49.0206 4.71073 48.673 4.71073V5.96945ZM52.535 4.71073C52.1874 4.71073 51.9057 4.9925 51.9057 5.34009C51.9057 5.68767 52.1874 5.96945 52.535 5.96945V4.71073ZM56.397 5.96945C56.7446 5.96945 57.0263 5.68767 57.0263 5.34009C57.0263 4.9925 56.7446 4.71073 56.397 4.71073V5.96945ZM60.259 4.71073C59.9114 4.71073 59.6296 4.9925 59.6296 5.34009C59.6296 5.68767 59.9114 5.96945 60.259 5.96945V4.71073ZM64.1209 5.96945C64.4685 5.96945 64.7503 5.68767 64.7503 5.34009C64.7503 4.9925 64.4685 4.71073 64.1209 4.71073V5.96945ZM67.9829 4.71073C67.6353 4.71073 67.3535 4.9925 67.3535 5.34009C67.3535 5.68767 67.6353 5.96945 67.9829 5.96945V4.71073ZM71.8449 5.96945C72.1924 5.96945 72.4742 5.68767 72.4742 5.34009C72.4742 4.9925 72.1924 4.71073 71.8449 4.71073V5.96945ZM75.7068 4.71073C75.3592 4.71073 75.0775 4.9925 75.0775 5.34009C75.0775 5.68767 75.3592 5.96945 75.7068 5.96945V4.71073ZM79.5688 5.96945C79.9164 5.96945 80.1982 5.68767 80.1982 5.34009C80.1982 4.9925 79.9164 4.71073 79.5688 4.71073V5.96945ZM83.4308 4.71073C83.0832 4.71073 82.8014 4.9925 82.8014 5.34009C82.8014 5.68767 83.0832 5.96945 83.4308 5.96945V4.71073ZM0.398438 5.96945H2.32942V4.71073H0.398438V5.96945ZM6.19139 5.96945H10.0534V4.71073H6.19139V5.96945ZM13.9153 5.96945H17.7773V4.71073H13.9153V5.96945ZM21.6393 5.96945H25.5012V4.71073H21.6393V5.96945ZM29.3632 5.96945H33.2252V4.71073H29.3632V5.96945ZM37.0871 5.96945H40.9491V4.71073H37.0871V5.96945ZM44.8111 5.96945H48.673V4.71073H44.8111V5.96945ZM52.535 5.96945H56.397V4.71073H52.535V5.96945ZM60.259 5.96945H64.1209V4.71073H60.259V5.96945ZM67.9829 5.96945H71.8449V4.71073H67.9829V5.96945ZM75.7068 5.96945H79.5688V4.71073H75.7068V5.96945ZM83.4308 5.96945H85.3617V4.71073H83.4308V5.96945Z" fill="#A3B2E0"/>
</svg>
