<svg width="136" height="16" viewBox="0 0 136 16" fill="none" xmlns="http://www.w3.org/2000/svg">
<path d="M135.354 8.35355C135.549 8.15829 135.549 7.84171 135.354 7.64645L132.172 4.46447C131.976 4.2692 131.66 4.2692 131.464 4.46447C131.269 4.65973 131.269 4.97631 131.464 5.17157L134.293 8L131.464 10.8284C131.269 11.0237 131.269 11.3403 131.464 11.5355C131.66 11.7308 131.976 11.7308 132.172 11.5355L135.354 8.35355ZM3.06818 8.5C3.34432 8.5 3.56818 8.27614 3.56818 8C3.56818 7.72386 3.34432 7.5 3.06818 7.5V8.5ZM9.20455 7.5C8.9284 7.5 8.70455 7.72386 8.70455 8C8.70455 8.27614 8.9284 8.5 9.20455 8.5V7.5ZM15.3409 8.5C15.6171 8.5 15.8409 8.27614 15.8409 8C15.8409 7.72386 15.6171 7.5 15.3409 7.5V8.5ZM21.4773 7.5C21.2011 7.5 20.9773 7.72386 20.9773 8C20.9773 8.27614 21.2011 8.5 21.4773 8.5V7.5ZM27.6136 8.5C27.8898 8.5 28.1136 8.27614 28.1136 8C28.1136 7.72386 27.8898 7.5 27.6136 7.5V8.5ZM33.75 7.5C33.4739 7.5 33.25 7.72386 33.25 8C33.25 8.27614 33.4739 8.5 33.75 8.5V7.5ZM39.8864 8.5C40.1625 8.5 40.3864 8.27614 40.3864 8C40.3864 7.72386 40.1625 7.5 39.8864 7.5V8.5ZM46.0227 7.5C45.7466 7.5 45.5227 7.72386 45.5227 8C45.5227 8.27614 45.7466 8.5 46.0227 8.5V7.5ZM52.1591 8.5C52.4352 8.5 52.6591 8.27614 52.6591 8C52.6591 7.72386 52.4352 7.5 52.1591 7.5V8.5ZM58.2955 7.5C58.0193 7.5 57.7955 7.72386 57.7955 8C57.7955 8.27614 58.0193 8.5 58.2955 8.5V7.5ZM64.4318 8.5C64.708 8.5 64.9318 8.27614 64.9318 8C64.9318 7.72386 64.708 7.5 64.4318 7.5V8.5ZM70.5682 7.5C70.292 7.5 70.0682 7.72386 70.0682 8C70.0682 8.27614 70.292 8.5 70.5682 8.5V7.5ZM76.7045 8.5C76.9807 8.5 77.2045 8.27614 77.2045 8C77.2045 7.72386 76.9807 7.5 76.7045 7.5V8.5ZM82.8409 7.5C82.5648 7.5 82.3409 7.72386 82.3409 8C82.3409 8.27614 82.5648 8.5 82.8409 8.5V7.5ZM88.9773 8.5C89.2534 8.5 89.4773 8.27614 89.4773 8C89.4773 7.72386 89.2534 7.5 88.9773 7.5V8.5ZM95.1136 7.5C94.8375 7.5 94.6136 7.72386 94.6136 8C94.6136 8.27614 94.8375 8.5 95.1136 8.5V7.5ZM101.25 8.5C101.526 8.5 101.75 8.27614 101.75 8C101.75 7.72386 101.526 7.5 101.25 7.5V8.5ZM107.386 7.5C107.11 7.5 106.886 7.72386 106.886 8C106.886 8.27614 107.11 8.5 107.386 8.5V7.5ZM113.523 8.5C113.799 8.5 114.023 8.27614 114.023 8C114.023 7.72386 113.799 7.5 113.523 7.5V8.5ZM119.659 7.5C119.383 7.5 119.159 7.72386 119.159 8C119.159 8.27614 119.383 8.5 119.659 8.5V7.5ZM125.795 8.5C126.072 8.5 126.295 8.27614 126.295 8C126.295 7.72386 126.072 7.5 125.795 7.5V8.5ZM131.932 7.5C131.656 7.5 131.432 7.72386 131.432 8C131.432 8.27614 131.656 8.5 131.932 8.5V7.5ZM0 8.5H3.06818V7.5H0V8.5ZM9.20455 8.5H15.3409V7.5H9.20455V8.5ZM21.4773 8.5H27.6136V7.5H21.4773V8.5ZM33.75 8.5H39.8864V7.5H33.75V8.5ZM46.0227 8.5H52.1591V7.5H46.0227V8.5ZM58.2955 8.5H64.4318V7.5H58.2955V8.5ZM70.5682 8.5H76.7045V7.5H70.5682V8.5ZM82.8409 8.5H88.9773V7.5H82.8409V8.5ZM95.1136 8.5H101.25V7.5H95.1136V8.5ZM107.386 8.5H113.523V7.5H107.386V8.5ZM119.659 8.5H125.795V7.5H119.659V8.5ZM131.932 8.5H135V7.5H131.932V8.5ZM135.707 8.70711C136.098 8.31658 136.098 7.68342 135.707 7.29289L129.343 0.928932C128.953 0.538408 128.319 0.538408 127.929 0.928932C127.538 1.31946 127.538 1.95262 127.929 2.34315L133.586 8L127.929 13.6569C127.538 14.0474 127.538 14.6805 127.929 15.0711C128.319 15.4616 128.953 15.4616 129.343 15.0711L135.707 8.70711ZM3.06818 9C3.62047 9 4.06818 8.55228 4.06818 8C4.06818 7.44772 3.62047 7 3.06818 7V9ZM9.20455 7C8.65226 7 8.20455 7.44772 8.20455 8C8.20455 8.55228 8.65226 9 9.20455 9V7ZM15.3409 9C15.8932 9 16.3409 8.55228 16.3409 8C16.3409 7.44772 15.8932 7 15.3409 7V9ZM21.4773 7C20.925 7 20.4773 7.44772 20.4773 8C20.4773 8.55228 20.925 9 21.4773 9V7ZM27.6136 9C28.1659 9 28.6136 8.55228 28.6136 8C28.6136 7.44772 28.1659 7 27.6136 7V9ZM33.75 7C33.1977 7 32.75 7.44772 32.75 8C32.75 8.55228 33.1977 9 33.75 9V7ZM39.8864 9C40.4387 9 40.8864 8.55228 40.8864 8C40.8864 7.44772 40.4387 7 39.8864 7V9ZM46.0227 7C45.4704 7 45.0227 7.44772 45.0227 8C45.0227 8.55228 45.4704 9 46.0227 9V7ZM52.1591 9C52.7114 9 53.1591 8.55228 53.1591 8C53.1591 7.44772 52.7114 7 52.1591 7V9ZM58.2955 7C57.7432 7 57.2955 7.44772 57.2955 8C57.2955 8.55228 57.7432 9 58.2955 9V7ZM64.4318 9C64.9841 9 65.4318 8.55228 65.4318 8C65.4318 7.44772 64.9841 7 64.4318 7V9ZM70.5682 7C70.0159 7 69.5682 7.44772 69.5682 8C69.5682 8.55228 70.0159 9 70.5682 9V7ZM76.7045 9C77.2568 9 77.7045 8.55228 77.7045 8C77.7045 7.44772 77.2568 7 76.7045 7V9ZM82.8409 7C82.2886 7 81.8409 7.44772 81.8409 8C81.8409 8.55228 82.2886 9 82.8409 9V7ZM88.9773 9C89.5295 9 89.9773 8.55228 89.9773 8C89.9773 7.44772 89.5295 7 88.9773 7V9ZM95.1136 7C94.5613 7 94.1136 7.44772 94.1136 8C94.1136 8.55228 94.5613 9 95.1136 9V7ZM101.25 9C101.802 9 102.25 8.55228 102.25 8C102.25 7.44772 101.802 7 101.25 7V9ZM107.386 7C106.834 7 106.386 7.44772 106.386 8C106.386 8.55228 106.834 9 107.386 9V7ZM113.523 9C114.075 9 114.523 8.55228 114.523 8C114.523 7.44772 114.075 7 113.523 7V9ZM119.659 7C119.107 7 118.659 7.44772 118.659 8C118.659 8.55228 119.107 9 119.659 9V7ZM125.795 9C126.348 9 126.795 8.55228 126.795 8C126.795 7.44772 126.348 7 125.795 7V9ZM131.932 7C131.38 7 130.932 7.44772 130.932 8C130.932 8.55228 131.38 9 131.932 9V7ZM0 9H3.06818V7H0V9ZM9.20455 9H15.3409V7H9.20455V9ZM21.4773 9H27.6136V7H21.4773V9ZM33.75 9H39.8864V7H33.75V9ZM46.0227 9H52.1591V7H46.0227V9ZM58.2955 9H64.4318V7H58.2955V9ZM70.5682 9H76.7045V7H70.5682V9ZM82.8409 9H88.9773V7H82.8409V9ZM95.1136 9H101.25V7H95.1136V9ZM107.386 9H113.523V7H107.386V9ZM119.659 9H125.795V7H119.659V9ZM131.932 9H135V7H131.932V9Z" fill="#A3B2E0"/>
</svg>
