<svg width="97" height="97" viewBox="0 0 97 97" fill="none" xmlns="http://www.w3.org/2000/svg">
<path d="M80.145 87.846C79.7724 87.821 79.3948 87.846 79.0248 87.846H72.9613C73.0438 87.406 73.3489 87.2634 73.5589 87.0584C75.0942 85.5582 76.6419 84.0579 78.1821 82.5577C79.3916 81.3735 80.1944 79.8363 80.475 78.167C80.8151 76.3292 80.165 74.684 79.6874 72.9737C78.1346 67.4053 76.6469 61.817 75.1617 56.2211C74.3741 53.2531 72.5838 51.0903 69.9859 49.5401C67.0241 47.7994 63.7236 46.714 60.3069 46.3571C54.4477 45.7114 48.5461 45.5375 42.6591 45.837C38.646 46.017 34.6428 46.3145 30.7922 47.6548C25.759 49.405 22.0409 52.3405 21.0707 57.9064C21.0332 58.1189 20.9557 58.3264 20.8982 58.5365C19.493 63.6623 18.4753 68.8906 16.8001 73.9439C15.6349 77.4569 16.41 80.4224 19.1379 82.9103C20.8607 84.478 22.551 86.0808 24.4463 87.841H23.7161C21.4658 87.841 19.2154 87.841 16.9801 87.841C16.18 87.841 15.7024 88.2911 15.6149 89.0912C15.5923 89.2702 15.6057 89.4519 15.6544 89.6256C15.703 89.7993 15.786 89.9616 15.8983 90.1027C16.0106 90.2439 16.15 90.3612 16.3083 90.4477C16.4666 90.5343 16.6406 90.5882 16.8201 90.6065C17.1604 90.6449 17.5032 90.6558 17.8452 90.639H79.3023C79.6133 90.6507 79.9247 90.6448 80.235 90.6215C81.0601 90.5265 81.5802 89.9739 81.5802 89.2188C81.5802 88.4211 81.0526 87.901 80.145 87.846ZM56.5238 48.8199C54.5235 51.6554 51.7855 52.7531 48.61 52.8006C45.2795 52.8531 42.4266 51.7254 40.2762 48.7999C45.6859 48.4265 51.1151 48.4332 56.5238 48.8199ZM69.5708 65.1225C69.0057 71.5435 68.4756 77.9695 67.9331 84.3955C67.8555 85.3256 67.738 86.2558 67.7105 87.1884C67.6955 87.7335 67.488 87.851 66.9854 87.8435C64.9851 87.8185 62.9973 87.8435 61.002 87.8435C50.9054 87.8435 40.8063 87.8435 30.7097 87.8685C29.7671 87.8685 29.492 87.6385 29.417 86.6834C28.8594 79.4797 28.2443 72.2786 27.6143 65.0825C27.5492 64.3474 27.7143 64.1448 28.4744 64.1473C35.1729 64.1798 41.874 64.1648 48.575 64.1648C55.2761 64.1648 61.9771 64.1798 68.6757 64.1448C69.4883 64.1323 69.6383 64.3649 69.5708 65.1225ZM70.6535 85.7382C70.806 83.8554 70.951 81.9726 71.1086 80.0923C71.5786 74.534 72.0637 68.9756 72.5213 63.4172C72.6513 61.827 72.1712 61.3494 70.5485 61.3494H26.7691C24.9388 61.3494 24.5188 61.802 24.6738 63.6573C25.2706 70.705 25.8706 77.7536 26.4741 84.8031C26.5016 85.1106 26.5066 85.4207 26.5316 85.9257C25.699 85.1606 24.9788 84.5005 24.2637 83.8379C23.051 82.7152 21.8233 81.6076 20.6382 80.4574C19.2254 79.0847 18.6579 77.3669 19.2529 75.5116C21.0282 70.0308 22.1734 64.3874 23.6986 58.844C23.7158 58.7832 23.7292 58.7214 23.7386 58.659C24.4588 54.2358 27.3417 51.8254 31.3573 50.4477C33.0882 49.8359 34.8756 49.3978 36.6932 49.14C37.0607 49.09 37.3108 49.1025 37.5233 49.4975C39.9112 53.9532 43.8968 55.626 48.685 55.611C52.3881 55.611 55.6286 54.2833 58.089 51.3853C58.4291 50.9828 58.8166 50.5627 58.9792 50.0826C59.3292 49.0475 59.9793 49.0825 60.8619 49.26C63.4449 49.7601 65.9352 50.4827 68.2356 51.7854C69.2938 52.3521 70.2242 53.1304 70.9688 54.072C71.7134 55.0136 72.2563 56.0984 72.5638 57.2588C74.1365 62.8246 75.3617 68.4805 77.0645 74.0114C77.417 75.1691 77.9296 76.2942 77.7346 77.5519C77.5516 78.6962 77.0187 79.7557 76.2093 80.5849C74.5091 82.4077 72.8488 84.273 71.1736 86.1208L70.6535 85.7382ZM50.9279 79.6223C50.1528 79.5998 49.3751 79.6223 48.5975 79.6223C47.8199 79.6223 47.0423 79.6048 46.2647 79.6223C45.392 79.6448 44.8744 80.1223 44.8169 80.8725C44.7921 81.0585 44.8071 81.2477 44.861 81.4275C44.9148 81.6073 45.0062 81.7736 45.1291 81.9155C45.252 82.0573 45.4037 82.1714 45.574 82.2502C45.7443 82.3291 45.9295 82.3708 46.1171 82.3727C47.7624 82.4327 49.4085 82.4327 51.0554 82.3727C51.244 82.3722 51.4304 82.3314 51.602 82.2533C51.7737 82.1751 51.9267 82.0612 52.0509 81.9193C52.1751 81.7773 52.2676 81.6106 52.3223 81.4301C52.377 81.2496 52.3926 81.0595 52.3681 80.8725C52.3156 80.1223 51.7955 79.6473 50.9279 79.6223ZM48.555 77.7395C49.0413 77.7376 49.5085 77.5499 49.8609 77.2147C50.2133 76.8795 50.4242 76.4223 50.4503 75.9367C50.4552 75.6927 50.4121 75.4502 50.3233 75.2229C50.2344 74.9956 50.1017 74.788 49.9327 74.612C49.7637 74.436 49.5616 74.2951 49.3381 74.1972C49.1146 74.0992 48.874 74.0463 48.63 74.0414C48.3861 74.0365 48.1435 74.0796 47.9162 74.1684C47.6889 74.2573 47.4814 74.39 47.3054 74.559C47.1294 74.728 46.9884 74.9301 46.8905 75.1536C46.7926 75.3771 46.7397 75.6177 46.7347 75.8617C46.7425 76.3475 46.935 76.812 47.2732 77.1609C47.6113 77.5097 48.0697 77.7166 48.555 77.7395Z" fill="#4665C0"/>
<path d="M50.5678 9.53895C43.4292 9.58896 39.066 11.0067 35.953 15.1523C33.8527 17.9503 32.8025 21.1833 32.1274 24.5738C31.4523 27.9643 31.5223 31.4574 31.1798 34.8954C30.7657 38.968 29.3949 42.8851 27.1792 46.3272C26.5991 47.2423 25.794 47.4674 25.0588 46.9773C24.3237 46.4872 24.2462 45.7471 24.8088 44.847C27.3092 40.8463 28.4769 36.4657 28.5919 31.7499C28.7094 26.8717 29.342 22.0684 31.3423 17.5452C34.4303 10.5716 39.8561 7.04356 47.4123 6.77602C53.0982 6.56849 58.234 7.9312 62.1796 12.3444C65.0101 15.5024 66.4353 19.313 67.3154 23.3836C68.0906 26.9667 68.1156 30.6197 68.4031 34.2478C68.7007 37.9709 69.9358 41.4014 71.8536 44.5944C71.9012 44.6744 71.9562 44.7495 72.0062 44.8295C72.5488 45.7321 72.4562 46.4897 71.7436 46.9598C71.031 47.4299 70.2084 47.2098 69.6233 46.3072C68.4057 44.3909 67.4432 42.324 66.7604 40.1587C65.8677 37.4083 65.5102 34.5829 65.4351 31.7024C65.3126 27.7018 64.8426 23.7562 63.4348 19.9731C60.8144 12.942 55.8912 9.53145 50.5678 9.53895Z" fill="#4665C0"/>
<path d="M60.9469 22.2908C60.7319 21.1531 60.1218 20.8056 58.9916 21.0131C58.6841 21.0681 58.3765 21.1131 58.069 21.1631C56.0187 21.5032 54.3184 20.8606 52.9657 19.3104C51.5505 17.6951 51.0154 17.7176 49.6452 19.4079C49.2131 19.9416 48.7497 20.4493 48.2575 20.9281C46.3597 22.7609 44.1068 23.6235 41.4539 23.3335C40.1905 23.1608 38.955 22.8246 37.7783 22.3333C36.6356 21.8983 35.9005 22.3333 35.6505 23.506C35.448 24.4587 35.4405 25.4238 35.3654 26.539C35.458 27.4141 35.5105 28.4443 35.6855 29.4544C36.4506 33.9276 38.2384 37.9133 41.5664 41.0713C45.5995 44.8994 50.8679 45.1519 54.8385 41.4038C60.3344 36.218 62.3547 29.7545 60.9469 22.2908ZM58.6266 26.9616C58.259 31.7548 56.6763 36.0055 52.9857 39.256C50.0477 41.8514 46.7747 41.9039 43.8193 39.316C40.7638 36.6431 39.2686 33.0975 38.4884 29.1969C38.3278 28.2139 38.2293 27.2218 38.1934 26.2264C38.1559 25.7264 38.2309 25.4763 38.856 25.6463C43.6067 26.9841 47.6299 25.7714 50.9554 22.1733C51.2804 21.8208 51.4705 21.7782 51.8455 22.1083C53.5758 23.631 55.6211 24.2161 57.894 24.0036C58.359 23.9611 58.4941 24.1011 58.5216 24.5387C58.5741 25.3438 58.7016 26.1464 58.6266 26.9616Z" fill="#4665C0"/>
<path d="M46.7347 75.8617C46.7396 75.6177 46.7926 75.3771 46.8905 75.1536C46.9884 74.9301 47.1294 74.728 47.3054 74.559C47.4814 74.39 47.6889 74.2573 47.9162 74.1685C48.1435 74.0796 48.3861 74.0365 48.63 74.0414C48.874 74.0463 49.1146 74.0993 49.3381 74.1972C49.5616 74.2951 49.7637 74.4361 49.9327 74.612C50.1017 74.788 50.2344 74.9956 50.3232 75.2229C50.4121 75.4502 50.4552 75.6927 50.4503 75.9367C50.4404 76.4294 50.2351 76.898 49.8796 77.2394C49.5242 77.5807 49.0477 77.7669 48.555 77.757C48.0623 77.747 47.5937 77.5418 47.2523 77.1863C46.911 76.8309 46.7248 76.3544 46.7347 75.8617Z" fill="#FEFEFE"/>
<path d="M51.0554 82.3903C49.4101 82.4487 47.764 82.4487 46.1171 82.3903C45.9294 82.3884 45.7443 82.3467 45.574 82.2679C45.4036 82.189 45.252 82.0749 45.1291 81.9331C45.0061 81.7913 44.9147 81.6249 44.8609 81.4451C44.8071 81.2653 44.7921 81.0761 44.8169 80.8901C44.8744 80.125 45.392 79.6574 46.2646 79.6399C47.0423 79.6174 47.8199 79.6399 48.5975 79.6399C49.3751 79.6399 50.1527 79.6224 50.9279 79.6399C51.7955 79.6649 52.3156 80.14 52.3681 80.9051C52.3903 81.0909 52.373 81.2794 52.3172 81.4581C52.2615 81.6368 52.1686 81.8016 52.0446 81.9419C51.9206 82.0821 51.7684 82.1946 51.5979 82.2719C51.4275 82.3492 51.2426 82.3895 51.0554 82.3903Z" fill="#FEFEFE"/>
<path d="M51.0554 82.3903C49.4101 82.4487 47.764 82.4487 46.1171 82.3903C45.9294 82.3884 45.7443 82.3467 45.574 82.2679C45.4036 82.189 45.252 82.0749 45.1291 81.9331C45.0061 81.7913 44.9147 81.6249 44.8609 81.4451C44.8071 81.2653 44.7921 81.0761 44.8169 80.8901C44.8744 80.125 45.392 79.6574 46.2646 79.6399C47.0423 79.6174 47.8199 79.6399 48.5975 79.6399C49.3751 79.6399 50.1527 79.6224 50.9279 79.6399C51.7955 79.6649 52.3156 80.14 52.3681 80.9051C52.3903 81.0909 52.373 81.2794 52.3172 81.4581C52.2615 81.6368 52.1686 81.8016 52.0446 81.9419C51.9206 82.0821 51.7684 82.1946 51.5979 82.2719C51.4275 82.3492 51.2426 82.3895 51.0554 82.3903Z" fill="#4665C0"/>
<path d="M50.4503 75.9367C50.4404 76.4294 50.2351 76.898 49.8796 77.2394C49.5242 77.5807 49.0477 77.7669 48.555 77.757C48.0623 77.747 47.5937 77.5418 47.2523 77.1863C46.911 76.8309 46.7248 76.3544 46.7347 75.8617C46.7396 75.6177 46.7926 75.3771 46.8905 75.1536C46.9884 74.9301 47.1294 74.728 47.3054 74.559C47.4814 74.39 47.6889 74.2573 47.9162 74.1685C48.1435 74.0796 48.3861 74.0365 48.63 74.0414C48.874 74.0463 49.1146 74.0993 49.3381 74.1972C49.5616 74.2951 49.7637 74.4361 49.9327 74.612C50.1017 74.788 50.2344 74.9956 50.3232 75.2229C50.4121 75.4502 50.4552 75.6927 50.4503 75.9367Z" fill="#4665C0"/>
</svg>
