<svg width="96" height="96" viewBox="0 0 96 96" fill="none" xmlns="http://www.w3.org/2000/svg">
<path d="M86.3535 83.803C86.0159 80.7375 85.6034 77.6821 85.3408 74.6091C85.1629 72.4055 84.2909 70.3151 82.85 68.6384C81.4092 66.9617 79.4738 65.7851 77.3221 65.2776C75.8519 64.9451 74.3366 64.9551 72.7164 64.6925C73.0764 64.475 73.309 64.3375 73.539 64.1925C76.762 62.1771 78.7073 57.759 77.9297 54.2584C77.0745 50.4278 73.8165 48.0074 69.5884 48.0799C65.5402 48.145 62.3848 50.7154 61.6921 54.546C61.2746 56.8663 61.8847 58.9891 63.0499 60.982C63.9678 62.5738 65.3351 63.8593 66.9805 64.6775C65.0977 64.9126 63.3624 65.0926 61.6421 65.3651C61.1421 65.4452 60.782 65.4277 60.3669 65.1151C58.9243 64.0186 57.2331 63.2954 55.4437 63.0098C53.8334 62.7322 52.1932 62.7397 50.4429 62.4972C50.6454 62.3647 50.7129 62.3122 50.7879 62.2747C54.4935 60.4394 56.4113 57.3464 56.8364 53.3408C57.3365 48.74 54.086 44.8969 49.1077 44.2694C42.5817 43.4442 37.6284 48.725 39.2636 55.021C40.1463 58.4241 42.1066 60.962 45.5421 62.5222C44.6445 62.5872 43.9669 62.6447 43.2918 62.6847C40.3688 62.8623 37.5234 63.2873 35.163 65.2501C35.0205 65.3701 34.878 65.5002 34.6629 65.4577C32.7801 64.9976 30.8348 64.9576 28.7745 64.6825C29.1621 64.4575 29.4021 64.325 29.6371 64.1825C32.8501 62.1996 34.7554 57.9315 34.0603 54.2709C33.2927 50.2278 29.1571 47.5199 24.7064 48.1275C20.1056 48.7651 17.2052 52.4281 17.7928 57.0188C18.2203 60.3819 19.9856 62.9098 23.1111 64.7025L20.4582 64.9401C15.0023 65.4227 11.0017 69.1757 10.4816 74.2465C10.1166 77.8121 9.68651 81.3676 9.26895 84.9257C9.20265 85.4051 9.23733 85.893 9.37077 86.3582C9.50421 86.8233 9.73347 87.2555 10.0438 87.6268C10.3541 87.9981 10.7387 88.3004 11.1728 88.5143C11.6069 88.7282 12.0809 88.849 12.5645 88.8688C13.6846 88.9138 14.8148 88.8688 15.9325 88.8813C16.5476 88.8813 17.0977 88.6313 17.3102 88.0937C17.5227 87.5561 17.8953 87.5686 18.3304 87.5686C22.081 87.5686 25.814 87.5861 29.5546 87.5686C30.1947 87.5686 30.7298 87.6336 31.2374 88.1162C31.801 88.6238 32.5369 88.8974 33.2952 88.8813C34.4804 88.8813 35.6656 88.8813 36.8508 88.8813C37.6009 88.8813 38.1335 88.5313 38.336 87.8362C38.466 87.3886 38.641 87.2436 39.0986 87.2461C44.9595 87.2577 50.8213 87.2577 56.6839 87.2461C57.0889 87.2461 57.2965 87.3461 57.4115 87.7461C57.6315 88.5438 58.2141 88.8813 59.0267 88.8738C60.1469 88.8738 61.2771 88.8738 62.3923 88.8738C63.3068 88.8999 64.1946 88.5638 64.8626 87.9387C64.9937 87.8091 65.1503 87.7082 65.3225 87.6423C65.4947 87.5764 65.6787 87.5471 65.8628 87.5561C69.7584 87.5678 73.6557 87.5678 77.5546 87.5561C77.9472 87.5561 78.2397 87.5761 78.4248 88.0312C78.6748 88.6338 79.2099 88.8763 79.86 88.8713C80.9827 88.8713 82.1103 88.8963 83.228 88.8713C84.0942 88.8464 84.9175 88.4888 85.527 87.8728C86.1365 87.2568 86.4853 86.4297 86.501 85.5633C86.4913 84.9739 86.442 84.3858 86.3535 83.803ZM64.6726 55.6786C64.7201 52.8782 67.2405 50.9029 70.2135 51.1654C73.1464 51.4155 75.0767 53.3658 75.0042 56.2312C74.922 57.2679 74.6129 58.2739 74.0987 59.1778C73.5845 60.0817 72.8778 60.8616 72.0288 61.462C70.7511 62.3697 69.3333 62.5097 67.9881 61.6846C65.7753 60.3269 64.6276 58.259 64.6726 55.6786ZM45.3796 58.8966C42.8792 57.1314 41.749 54.686 42.1291 51.6455C42.4391 49.1626 44.687 47.4323 47.6299 47.2673C51.193 47.0673 53.8609 49.5027 53.7359 53.4808C53.6234 55.3361 52.5857 57.3389 50.5779 58.8041C48.8776 60.0343 47.0774 60.1018 45.3796 58.8966ZM20.7732 56.3612C20.7582 53.0757 23.1336 50.9854 26.1816 51.1554C29.9647 51.3655 31.9775 54.3709 30.7273 57.949C30.2097 59.4292 29.3671 60.6794 28.0319 61.537C26.6392 62.4372 25.1914 62.4522 23.8237 61.522C22.9584 60.9482 22.2343 60.1857 21.706 59.2919C21.1776 58.398 20.8587 57.396 20.7732 56.3612ZM32.31 68.6132C31.1849 70.5935 31.0023 72.8113 30.7173 74.9966C30.3522 77.8046 30.0397 80.6225 29.7346 83.4405C29.6571 84.1581 29.4696 84.5156 28.6145 84.4556C27.2493 84.3556 25.864 84.4281 24.5013 84.4281C23.1386 84.4281 21.8159 84.3506 20.4832 84.4531C19.4555 84.5331 19.268 84.1481 19.2855 83.2179C19.333 80.9451 19.2655 78.6672 19.2505 76.3919C19.2505 75.8093 19.1305 75.2692 18.6854 74.8666C17.8853 74.1515 16.6576 74.6591 16.4651 75.8193C15.965 78.8573 15.4649 81.9002 15.0198 84.9482C14.9223 85.6283 14.7123 85.9084 14.0397 85.7983C13.9465 85.7909 13.8528 85.7909 13.7597 85.7983C12.2394 85.7983 12.2294 85.7608 12.4119 84.2981C12.772 81.3927 13.112 78.4847 13.4321 75.5742C13.9747 70.5535 16.14 68.4206 21.1608 67.9555C24.7333 67.6341 28.3297 67.6919 31.89 68.1281C32.18 68.1606 32.6126 68.0906 32.31 68.6232V68.6132ZM61.3146 85.7958C60.3944 86.0459 60.1244 85.5458 59.9919 84.5456C59.5768 81.3976 59.0317 78.2697 58.5366 75.1342C58.5116 74.9791 58.4766 74.8291 58.4441 74.6766C58.2366 73.6939 57.6515 73.1539 56.8339 73.1764C56.0163 73.1989 55.3787 73.8715 55.3487 74.8991C55.2861 77.2045 55.2586 79.5099 55.2161 81.8177C55.1874 82.3774 55.1874 82.9383 55.2161 83.498C55.2711 84.1106 55.0611 84.2706 54.4485 84.2656C50.5079 84.2631 46.5373 84.2631 42.5792 84.2631C40.6439 84.2631 40.6439 84.2631 40.6289 82.3278C40.6063 80.0224 40.5888 77.7171 40.5613 75.4092C40.564 75.099 40.5312 74.7894 40.4638 74.4866C40.2688 73.6664 39.7687 73.1364 38.8861 73.2014C38.0034 73.2664 37.5584 73.7865 37.4258 74.6391C36.8808 78.1146 36.3007 81.5827 35.7906 85.0632C35.7006 85.6858 35.4855 85.8133 34.9155 85.8133C32.3151 85.8133 32.7176 85.8133 32.9552 83.748C33.3727 80.1299 33.6903 76.4969 34.2454 72.8963C34.8905 68.7107 37.4058 66.3953 41.5615 65.9077C46.1466 65.3578 50.7838 65.4074 55.3562 66.0552C58.4016 66.4903 60.917 68.9482 61.5271 72.3787C62.0022 75.0392 62.1772 77.7546 62.4923 80.445C62.6323 81.6502 62.7698 82.8579 62.9398 84.0606C63.1874 85.8083 63.1999 85.8058 61.3246 85.8058L61.3146 85.7958ZM82.4804 85.8083C80.8601 85.8083 80.8726 85.8383 80.6151 84.1656C80.195 81.4276 79.755 78.6947 79.3224 75.9618C79.1774 75.0492 78.6398 74.5341 77.8672 74.5566C77.0946 74.5791 76.5445 75.1842 76.5245 76.1593C76.4719 78.6597 76.4219 81.1426 76.4269 83.633C76.4269 84.2981 76.2244 84.4506 75.5843 84.4431C72.6889 84.4081 69.7926 84.4081 66.8955 84.4431C66.2829 84.4431 66.1203 84.2481 66.0378 83.6705C65.4827 79.7574 65.2602 75.8043 64.5651 71.9187C64.3466 70.6207 63.905 69.3704 63.2599 68.2231C67.1687 67.6582 71.1332 67.5893 75.0592 68.0181C76.0144 68.1256 76.9845 68.1756 77.8872 68.5631C80.7976 69.8133 82.0103 72.2362 82.2954 75.1892C82.6029 78.3822 82.953 81.5677 83.408 84.7407C83.513 85.5133 83.298 85.8208 82.4904 85.8183L82.4804 85.8083Z" fill="#4665C0"/>
<path d="M39.9312 19.9407C39.9312 20.3355 39.8144 20.7214 39.5955 21.0499C39.3765 21.3784 39.0653 21.6348 38.701 21.7868C38.3366 21.9387 37.9354 21.9795 37.548 21.9039C37.1605 21.8284 36.8041 21.6398 36.5235 21.3621C36.243 21.0843 36.0509 20.7298 35.9715 20.3431C35.8921 19.9564 35.9289 19.5548 36.0772 19.189C36.2255 18.8232 36.4788 18.5094 36.8051 18.2872C37.1314 18.065 37.5162 17.9444 37.9109 17.9404C38.1765 17.9333 38.4407 17.98 38.6877 18.0777C38.9348 18.1755 39.1594 18.3222 39.3482 18.5091C39.537 18.6961 39.686 18.9193 39.7862 19.1653C39.8864 19.4113 39.9357 19.6751 39.9312 19.9407Z" fill="#4665C0"/>
<path d="M49.9378 19.9532C49.9437 20.3559 49.8298 20.7512 49.6105 21.089C49.3911 21.4267 49.0763 21.6916 48.706 21.85C48.3358 22.0083 47.9267 22.053 47.531 21.9783C47.1353 21.9036 46.7707 21.7129 46.4837 21.4304C46.1966 21.1479 46 20.7865 45.919 20.392C45.8379 19.9975 45.8759 19.5879 46.0283 19.2151C46.1807 18.8423 46.4405 18.5232 46.7746 18.2985C47.1088 18.0737 47.5023 17.9534 47.905 17.9529C48.4393 17.9502 48.953 18.1591 49.3339 18.5339C49.7147 18.9086 49.9319 19.4189 49.9378 19.9532Z" fill="#4665C0"/>
<path d="M59.8919 20.003C59.8819 20.3984 59.7549 20.7819 59.527 21.1051C59.2992 21.4283 58.9806 21.6767 58.6116 21.8189C58.2426 21.9612 57.8397 21.9908 57.4538 21.9042C57.068 21.8175 56.7165 21.6184 56.4437 21.332C56.171 21.0457 55.9892 20.6849 55.9215 20.2953C55.8537 19.9056 55.9029 19.5047 56.063 19.143C56.223 18.7814 56.4866 18.4753 56.8205 18.2634C57.1545 18.0516 57.5437 17.9434 57.9391 17.9527C58.2033 17.9545 58.4645 18.0095 58.707 18.1144C58.9495 18.2193 59.1685 18.372 59.3507 18.5633C59.533 18.7547 59.6748 18.9807 59.7678 19.2281C59.8607 19.4755 59.903 19.739 59.8919 20.003Z" fill="#4665C0"/>
<path d="M89.3365 14.2822C89.3365 9.9015 86.7411 7.30859 82.3729 7.30859H47.955C36.3915 7.30859 24.8256 7.30859 13.2571 7.30859C9.17894 7.31109 6.50102 9.9365 6.50102 14.0021C6.47602 17.9611 6.47602 21.9209 6.50102 25.8815C6.52353 29.9596 9.17644 32.575 13.2521 32.58C17.0552 32.58 20.8583 32.605 24.6614 32.56C25.4565 32.56 25.644 32.7876 25.624 33.5477C25.5765 35.3555 25.6465 37.1658 25.624 38.9735C25.624 39.8112 25.749 40.5463 26.6242 40.8838C27.4993 41.2214 28.0944 40.7488 28.6445 40.1337C30.7023 37.7934 32.7826 35.473 34.833 33.1326C34.9688 32.9503 35.147 32.8037 35.3522 32.7057C35.5574 32.6077 35.7834 32.5611 36.0106 32.57C38.1626 32.6017 40.3138 32.6017 42.4641 32.57C42.6729 32.5385 42.8859 32.5838 43.0638 32.6973C43.2417 32.8109 43.3725 32.9851 43.4318 33.1876C44.3394 35.298 45.3071 37.3858 46.2322 39.4886C46.5723 40.2637 46.9473 40.9889 47.93 40.9739C48.9127 40.9588 49.2627 40.2237 49.6003 39.4511C50.5254 37.3458 51.4906 35.258 52.4132 33.1526C52.4691 32.9652 52.5898 32.8037 52.7538 32.697C52.9178 32.5903 53.1143 32.5453 53.3083 32.57C55.5537 32.6 57.7982 32.6 60.0419 32.57C60.2848 32.5585 60.5269 32.6062 60.7473 32.709C60.9677 32.8118 61.1598 32.9666 61.3071 33.1601C63.3624 35.503 65.4452 37.8209 67.5106 40.1612C68.0381 40.7563 68.6007 41.2114 69.4534 40.8913C70.306 40.5713 70.511 39.8462 70.511 39.006C70.511 37.1358 70.5535 35.2555 70.511 33.3952C70.511 32.7476 70.6561 32.5675 71.3212 32.5725C75.0292 32.61 78.7398 32.5925 82.4504 32.59C86.7011 32.59 89.319 29.9671 89.329 25.719C89.3423 21.8984 89.3448 18.0861 89.3365 14.2822ZM86.2635 25.8265C86.2635 28.1593 84.9683 29.4921 82.6304 29.5046C78.2998 29.5246 73.9666 29.5046 69.6284 29.5046C67.9081 29.5046 67.4656 29.9346 67.4481 31.6399C67.4356 32.7926 67.4481 33.9453 67.4481 35.0979L67.248 35.1929C65.8303 33.6002 64.3901 32.0225 62.9974 30.4022C62.7583 30.0978 62.45 29.8549 62.0982 29.6935C61.7464 29.5322 61.3612 29.4571 60.9745 29.4746C58.0141 29.5046 55.0536 29.5046 52.0932 29.4746C51.093 29.4746 50.4729 29.8496 50.0928 30.7848C49.4402 32.355 48.7076 33.8877 47.92 35.633C47.1699 33.9828 46.4648 32.52 45.8622 31.0123C45.4221 29.9071 44.7395 29.437 43.5243 29.4646C40.7514 29.5321 37.9759 29.5071 35.203 29.4646C34.8015 29.4433 34.4007 29.5188 34.0343 29.6845C33.668 29.8503 33.3468 30.1016 33.0977 30.4172C31.7075 32.045 30.2622 33.6227 28.657 35.418C28.657 33.9177 28.657 32.6676 28.657 31.4024C28.657 30.0021 28.1419 29.4771 26.7442 29.4746C22.351 29.4746 17.9553 29.4746 13.5596 29.4746C10.7717 29.4746 9.579 28.2819 9.579 25.4989C9.579 21.665 9.579 17.8311 9.579 13.9971C9.579 11.7118 10.8767 10.3741 13.1546 10.3741C36.3432 10.3641 59.5318 10.3641 82.7204 10.3741C84.9458 10.3741 86.2585 11.7218 86.2635 13.9371C86.2635 17.9044 86.2635 21.8675 86.2635 25.8265Z" fill="#4665C0"/>
<path d="M39.9312 19.9407C39.9312 20.3355 39.8144 20.7214 39.5955 21.0499C39.3765 21.3784 39.0653 21.6348 38.701 21.7868C38.3366 21.9387 37.9354 21.9795 37.548 21.9039C37.1605 21.8284 36.8041 21.6398 36.5235 21.3621C36.243 21.0843 36.0509 20.7298 35.9715 20.3431C35.8921 19.9564 35.9289 19.5548 36.0772 19.189C36.2255 18.8232 36.4788 18.5094 36.8051 18.2872C37.1314 18.065 37.5162 17.9444 37.9109 17.9404C38.1765 17.9333 38.4407 17.98 38.6877 18.0777C38.9348 18.1755 39.1594 18.3222 39.3482 18.5091C39.537 18.6961 39.686 18.9193 39.7862 19.1653C39.8864 19.4113 39.9357 19.6751 39.9312 19.9407Z" fill="#FEFEFE"/>
<path d="M49.9378 19.9532C49.9437 20.3559 49.8298 20.7512 49.6105 21.089C49.3911 21.4267 49.0763 21.6916 48.706 21.85C48.3358 22.0083 47.9267 22.053 47.531 21.9783C47.1353 21.9036 46.7707 21.7129 46.4837 21.4304C46.1966 21.1479 46 20.7865 45.919 20.392C45.8379 19.9975 45.8759 19.5879 46.0283 19.2151C46.1807 18.8423 46.4405 18.5232 46.7746 18.2985C47.1088 18.0737 47.5023 17.9534 47.905 17.9529C48.4393 17.9502 48.953 18.1591 49.3339 18.5339C49.7147 18.9086 49.9319 19.4189 49.9378 19.9532Z" fill="#FEFEFE"/>
<path d="M59.8919 20.003C59.8819 20.3984 59.7549 20.7819 59.527 21.1051C59.2992 21.4283 58.9806 21.6767 58.6116 21.8189C58.2426 21.9612 57.8397 21.9908 57.4538 21.9042C57.068 21.8175 56.7165 21.6184 56.4437 21.332C56.171 21.0457 55.9892 20.6849 55.9215 20.2953C55.8537 19.9056 55.9029 19.5047 56.063 19.143C56.223 18.7814 56.4866 18.4753 56.8205 18.2634C57.1545 18.0516 57.5437 17.9434 57.9391 17.9527C58.2033 17.9545 58.4645 18.0095 58.707 18.1144C58.9495 18.2193 59.1685 18.372 59.3507 18.5633C59.533 18.7547 59.6748 18.9807 59.7678 19.2281C59.8607 19.4755 59.903 19.739 59.8919 20.003Z" fill="#FEFEFE"/>
<path d="M49.9378 19.9532C49.9437 20.3559 49.8298 20.7512 49.6105 21.089C49.3911 21.4267 49.0763 21.6916 48.706 21.85C48.3358 22.0083 47.9267 22.053 47.531 21.9783C47.1353 21.9036 46.7707 21.7129 46.4837 21.4304C46.1966 21.1479 46 20.7865 45.919 20.392C45.8379 19.9975 45.8759 19.5879 46.0283 19.2151C46.1807 18.8423 46.4405 18.5232 46.7746 18.2985C47.1088 18.0737 47.5023 17.9534 47.905 17.9529C48.4393 17.9502 48.953 18.1591 49.3339 18.5339C49.7147 18.9086 49.9319 19.4189 49.9378 19.9532Z" fill="#4665C0"/>
<path d="M39.9312 19.9407C39.9312 20.3355 39.8144 20.7214 39.5955 21.0499C39.3765 21.3784 39.0653 21.6348 38.701 21.7868C38.3366 21.9387 37.9354 21.9795 37.548 21.9039C37.1605 21.8284 36.8041 21.6398 36.5235 21.3621C36.243 21.0843 36.0509 20.7298 35.9715 20.3431C35.8921 19.9564 35.9289 19.5548 36.0772 19.189C36.2255 18.8232 36.4788 18.5094 36.8051 18.2872C37.1314 18.065 37.5162 17.9444 37.9109 17.9404C38.1765 17.9333 38.4407 17.98 38.6877 18.0777C38.9348 18.1755 39.1594 18.3222 39.3482 18.5091C39.537 18.6961 39.686 18.9193 39.7862 19.1653C39.8864 19.4113 39.9357 19.6751 39.9312 19.9407Z" fill="#4665C0"/>
<path d="M59.8919 20.003C59.8819 20.3984 59.7549 20.7819 59.527 21.1051C59.2992 21.4283 58.9806 21.6767 58.6116 21.8189C58.2426 21.9612 57.8397 21.9908 57.4538 21.9042C57.068 21.8175 56.7165 21.6184 56.4437 21.332C56.171 21.0457 55.9892 20.6849 55.9215 20.2953C55.8537 19.9056 55.9029 19.5047 56.063 19.143C56.223 18.7814 56.4866 18.4753 56.8205 18.2634C57.1545 18.0516 57.5437 17.9434 57.9391 17.9527C58.2033 17.9545 58.4645 18.0095 58.707 18.1144C58.9495 18.2193 59.1685 18.372 59.3507 18.5633C59.533 18.7547 59.6748 18.9807 59.7678 19.2281C59.8607 19.4755 59.903 19.739 59.8919 20.003Z" fill="#4665C0"/>
</svg>
