<svg width="96" height="97" viewBox="0 0 96 97" fill="none" xmlns="http://www.w3.org/2000/svg">
<path d="M65.3777 67.848C65.1152 67.0553 64.5001 66.8103 63.7325 66.7053C60.732 66.2927 57.754 65.8352 54.7636 65.4176C54.1635 65.3351 53.7784 65.135 53.4934 64.535C52.1857 61.7845 50.8005 59.0716 49.4677 56.3337C49.1277 55.6386 48.7176 55.116 47.865 55.1335C47.0649 55.1535 46.6748 55.6636 46.3523 56.3237C45.0071 59.0891 43.6243 61.8395 42.2841 64.6075C42.2029 64.8222 42.063 65.0098 41.8805 65.149C41.6979 65.2882 41.48 65.3735 41.2515 65.3951C38.201 65.8252 35.153 66.2977 32.1 66.7153C31.3274 66.8203 30.7148 67.0478 30.4398 67.838C30.1647 68.6281 30.5523 69.1432 31.0724 69.6482C32.7326 71.251 34.2529 73.0338 36.0732 74.4315C38.0135 75.9317 38.3235 77.562 37.7484 79.8098C37.1383 82.1527 36.8883 84.5856 36.4982 86.8834C36.4557 88.3462 37.6659 89.0363 38.9661 88.3612C41.6965 86.941 44.4245 85.5182 47.1299 84.0505C47.7275 83.7255 48.165 83.7605 48.7501 84.078C51.4281 85.5307 54.136 86.9235 56.8289 88.3487C57.4515 88.6787 58.0641 88.7912 58.6742 88.3637C59.3218 87.9111 59.4068 87.256 59.2818 86.5309C58.7517 83.4954 58.2391 80.4574 57.6865 77.427C57.6259 77.1754 57.6381 76.9118 57.7218 76.6669C57.8055 76.4221 57.9572 76.2061 58.1591 76.0443C60.3469 73.9564 62.4998 71.8336 64.6601 69.7258C65.1977 69.2082 65.6503 68.6681 65.3777 67.848ZM55.3287 74.449C54.476 75.2766 54.2835 76.1068 54.496 77.1994C54.9361 79.4823 55.3037 81.7826 55.7462 84.263C55.0636 83.908 54.526 83.6329 53.996 83.3504C52.2907 82.4578 50.5804 81.5676 48.8827 80.66C48.5884 80.485 48.2524 80.3926 47.91 80.3926C47.5676 80.3926 47.2316 80.485 46.9374 80.66C44.707 81.8627 42.4742 83.0128 40.0863 84.263C40.3588 82.6103 40.6039 81.105 40.8539 79.5998C40.9234 78.9505 41.0395 78.3071 41.2015 77.6745C41.7015 76.1368 41.2015 75.0591 40.0163 73.9864C38.436 72.5412 37.0583 70.8759 35.6131 69.3257L40.3638 68.6131C41.066 68.4735 41.7756 68.3742 42.4892 68.3155C43.6568 68.278 44.2519 67.6329 44.7145 66.6428C45.7147 64.5175 46.7698 62.4271 47.8875 60.1418C48.9377 62.2696 50.0103 64.1924 50.843 66.2152C51.4681 67.7305 52.4707 68.2905 54.021 68.4331C56.1563 68.6306 58.2716 69.0232 60.1619 69.2982C58.5817 71.011 57.0239 72.8012 55.3287 74.449Z" fill="#4665C0"/>
<path d="M68.7257 62.6322C67.7806 62.7322 67.143 62.0721 66.9754 60.8819C66.1778 55.206 65.5477 49.5126 64.9226 43.8167C64.3475 38.5659 60.6719 35.1529 55.4211 34.5278C50.1219 33.9272 44.7705 33.9482 39.4761 34.5903C35.1255 35.0904 31.8099 38.1609 30.6948 42.7216C30.1797 44.8244 30.2147 46.9872 29.9622 49.1176C29.4871 53.1182 29.0545 57.1013 28.5744 61.0894C28.4369 62.2321 27.7343 62.7872 26.7692 62.6522C25.844 62.5197 25.3614 61.7495 25.519 60.6119C26.2157 55.1744 26.815 49.726 27.3167 44.2668C28.0193 36.6831 32.7776 32.0149 40.3588 31.3998C42.4391 31.2298 44.5244 31.1173 46.6098 30.9797H49.4077C52.2381 31.1298 55.1036 31.1273 57.859 31.8224C63.2449 33.1826 66.3253 36.8757 67.7206 42.109C68.3506 44.4693 68.2931 46.9272 68.6157 49.3301C69.1158 53.0657 69.5608 56.8088 70.0284 60.5469C70.1759 61.727 69.6734 62.5322 68.7257 62.6322Z" fill="#4665C0"/>
<path d="M30.7173 74.2289C30.9726 74.0188 31.1574 73.7356 31.2468 73.4173C31.3362 73.099 31.326 72.7609 31.2174 72.4486C31.0074 71.8336 30.5073 71.526 29.8747 71.4335C27.6769 71.1159 25.504 70.7609 23.2987 70.5108C23.0402 70.501 22.7902 70.4157 22.5796 70.2656C22.369 70.1154 22.207 69.9069 22.1135 69.6657C21.2033 67.7579 20.2382 65.8776 19.3255 63.9723C18.9905 63.2747 18.5754 62.7346 17.7428 62.7221C16.9102 62.7096 16.4926 63.2747 16.1576 63.9723C15.2224 65.9051 14.2523 67.8179 13.3246 69.7507C13.2557 69.9538 13.1296 70.1326 12.9615 70.2657C12.7934 70.3987 12.5904 70.4804 12.377 70.5008C10.1866 70.7609 8.00128 71.1109 5.81093 71.411C5.11082 71.506 4.56074 71.761 4.2932 72.4587C4.00815 73.2088 4.3232 73.7764 4.85328 74.2889C6.2435 75.6316 7.57621 77.0394 9.02643 78.3146C9.88157 79.0647 10.0941 79.7823 9.84406 80.89C9.38899 82.9203 9.11895 84.9956 8.7964 86.9209C8.7964 88.3311 9.96408 89.0212 11.1668 88.4211C13.1071 87.436 15.0399 86.4333 16.9427 85.3832C17.5278 85.0606 17.9678 85.0306 18.5629 85.3582C20.4632 86.4158 22.401 87.4085 24.3263 88.4186C24.9214 88.7312 25.5265 88.7787 26.0766 88.3511C26.3291 88.1651 26.5205 87.9081 26.6265 87.6129C26.7325 87.3176 26.7482 86.9976 26.6717 86.6934C26.2791 84.488 25.9216 82.2752 25.5115 80.0698C25.4554 79.8645 25.4596 79.6474 25.5234 79.4444C25.5872 79.2414 25.7081 79.0609 25.8716 78.9247C27.5043 77.3694 29.1021 75.7867 30.7173 74.2289ZM23.0936 77.2994C22.7478 77.5875 22.491 77.9681 22.3533 78.3967C22.2156 78.8252 22.2027 79.2841 22.316 79.7198C22.5661 80.9375 22.7661 82.1652 22.9761 83.3904C23.0161 83.6229 23.1136 83.8704 22.9136 84.168C21.5459 83.4554 20.1632 82.7628 18.8105 82.0151C18.4968 81.8161 18.133 81.7104 17.7616 81.7104C17.3901 81.7104 17.0263 81.8161 16.7126 82.0151C15.3349 82.7878 13.9172 83.4854 12.382 84.283C12.6645 82.5927 12.882 81.0325 13.1996 79.5022C13.2881 79.1408 13.2757 78.7619 13.1637 78.407C13.0517 78.052 12.8445 77.7347 12.5645 77.4894C11.4518 76.3718 10.3816 75.2116 9.27898 74.0514C10.8042 73.8214 12.3845 73.5513 13.9722 73.3588C14.3278 73.3253 14.6671 73.1934 14.952 72.9778C15.2368 72.7623 15.456 72.4717 15.585 72.1386C16.2526 70.7059 16.9802 69.3057 17.7528 67.7604C18.4879 69.2456 19.1955 70.6209 19.8481 72.0111C20.2232 72.8162 20.7658 73.2613 21.6784 73.3738C23.2212 73.5488 24.7564 73.8089 26.1991 74.0189C25.1515 75.1416 24.1788 76.2792 23.0936 77.2994Z" fill="#4665C0"/>
<path d="M90.9692 74.2866C91.3477 73.9568 91.5871 73.4958 91.6393 72.9964C91.6393 72.2188 91.0617 71.5687 90.1791 71.4362C87.9938 71.1061 85.8084 70.7711 83.6156 70.501C83.3577 70.4911 83.1084 70.4051 82.8993 70.2538C82.6902 70.1026 82.5305 69.8928 82.4404 69.6509C81.5402 67.7381 80.5751 65.8553 79.6524 63.955C79.3199 63.2674 78.9023 62.7048 78.0622 62.7223C77.2221 62.7398 76.812 63.2774 76.4845 63.9725C75.5593 65.9053 74.5892 67.8181 73.6465 69.7434C73.4615 70.121 73.2765 70.4085 72.7864 70.471C70.5935 70.7611 68.4107 71.1136 66.2204 71.4012C65.4827 71.4987 64.8676 71.7287 64.6126 72.4638C64.3576 73.199 64.6851 73.8291 65.2502 74.3691C66.8079 75.8519 68.3257 77.3696 69.8809 78.8698C70.0604 79.0106 70.1956 79.2 70.2706 79.4154C70.3455 79.6309 70.3569 79.8633 70.3035 80.085C69.9059 82.2279 69.5809 84.3832 69.1758 86.5235C69.0358 87.2737 69.1208 87.8938 69.7409 88.3563C70.361 88.8189 71.0111 88.6814 71.6637 88.3313C73.5815 87.3037 75.5218 86.3185 77.4321 85.2808C77.6239 85.1578 77.8469 85.0925 78.0747 85.0925C78.3025 85.0925 78.5255 85.1578 78.7173 85.2808C80.5751 86.281 82.4554 87.2587 84.3182 88.2563C85.0108 88.6289 85.6984 88.8814 86.411 88.3538C87.1236 87.8262 87.0711 87.0861 86.9361 86.316C86.5685 84.2332 86.251 82.1379 85.8434 80.065C85.7359 79.5074 85.9109 79.2074 86.2735 78.8623C87.8487 77.3371 89.399 75.8019 90.9692 74.2866ZM83.6306 77.0971C82.7679 77.8872 82.3804 78.6823 82.6729 79.8875C83.018 81.2677 83.173 82.6954 83.443 84.2657C82.0053 83.5156 80.6601 82.848 79.3549 82.1078C78.977 81.8618 78.5357 81.7308 78.0847 81.7308C77.6337 81.7308 77.1924 81.8618 76.8145 82.1078C75.5318 82.858 74.1916 83.4981 72.7089 84.2732C72.9589 82.7154 73.1514 81.3052 73.459 79.9225C73.709 78.8023 73.459 77.9672 72.6013 77.1721C71.5487 76.2094 70.626 75.1043 69.6334 74.0441C71.0886 73.8241 72.6589 73.5565 74.2366 73.3665C74.6079 73.3369 74.9636 73.2041 75.2636 72.9832C75.5635 72.7623 75.7959 72.4621 75.9344 72.1163C76.6145 70.6936 77.3246 69.2858 78.0697 67.7756C78.8373 69.3209 79.5699 70.7261 80.235 72.1538C80.3662 72.4862 80.5871 72.7757 80.8732 72.9899C81.1594 73.204 81.4994 73.3344 81.8553 73.3665C83.4305 73.564 84.9958 73.8216 86.5785 74.0591C85.5909 75.0768 84.6657 76.1494 83.6306 77.0971Z" fill="#4665C0"/>
<path d="M57.4615 14.4546C55.0486 9.00129 47.84 6.85845 42.2916 9.85642C38.4485 11.9317 36.6282 15.7148 37.2383 20.3781C37.8934 25.4114 41.989 29.9121 46.5848 30.6697H48.8576C51.9106 30.1871 54.1935 28.4918 55.8762 26.0039C58.2866 22.4359 59.2867 18.5853 57.4615 14.4546ZM50.5929 26.7866C48.7101 27.9542 46.7648 27.9367 44.842 26.8491C41.799 25.1288 39.7237 20.8231 40.2563 17.3651C40.7564 14.1496 43.4718 11.9167 47.2399 11.6342C51.008 11.3517 54.276 13.5495 55.0811 16.9825C55.1793 17.5007 55.247 18.0242 55.2836 18.5503C55.0886 22.1558 53.6009 24.9213 50.5929 26.7866Z" fill="#4665C0"/>
<path d="M61.3571 61.0544C61.3826 61.4484 61.2517 61.8366 60.9929 62.1348C60.734 62.433 60.3681 62.6171 59.9744 62.6472C59.0042 62.7347 58.3291 62.1271 58.2466 60.9969C57.9641 57.1738 57.7115 53.3507 57.449 49.5276C57.364 48.2774 57.2614 47.0422 57.2139 45.797C57.1789 44.8619 57.7715 44.1943 58.6142 44.1243C58.817 44.1107 59.0205 44.1375 59.2129 44.2031C59.4053 44.2687 59.5828 44.3718 59.7351 44.5065C59.8874 44.6411 60.0115 44.8046 60.1002 44.9875C60.1889 45.1704 60.2405 45.369 60.2519 45.572C60.627 50.6678 60.982 55.7586 61.3571 61.0544Z" fill="#4665C0"/>
<path d="M38.196 45.8246C37.8284 51.1479 37.5059 55.8261 37.1808 60.5219C37.1651 60.8021 37.1317 61.081 37.0808 61.357C37.026 61.7459 36.821 62.0978 36.5096 62.3372C36.1983 62.5765 35.8055 62.6842 35.4156 62.6372C35.04 62.6109 34.6893 62.4397 34.4374 62.1599C34.1855 61.88 34.0521 61.5133 34.0654 61.137C34.0829 60.1118 34.1804 59.0867 34.2504 58.0615C34.5229 54.1184 34.783 50.1753 35.078 46.2347C35.188 44.7494 35.7931 44.0568 36.7808 44.1443C37.7684 44.2318 38.236 44.967 38.196 45.8246Z" fill="#4665C0"/>
</svg>
