<svg width="24" height="24" viewBox="0 0 24 24" fill="none" xmlns="http://www.w3.org/2000/svg">
<g clip-path="url(#clip0_670_4423)">
<path d="M12 21C9.48333 21 7.354 20.129 5.612 18.387C3.87067 16.6457 3 14.5167 3 12C3 9.7 3.75 7.704 5.25 6.012C6.75 4.32067 8.66667 3.33333 11 3.05C11.4167 3 11.7417 3.15 11.975 3.5C12.2083 3.85 12.2 4.21667 11.95 4.6C11.6667 5.03333 11.454 5.49167 11.312 5.975C11.1707 6.45833 11.1 6.96667 11.1 7.5C11.1 9 11.625 10.275 12.675 11.325C13.725 12.375 15 12.9 16.5 12.9C17.0167 12.9 17.5293 12.825 18.038 12.675C18.546 12.525 19 12.3167 19.4 12.05C19.75 11.8167 20.1083 11.804 20.475 12.012C20.8417 12.2207 21 12.55 20.95 13C20.7167 15.3 19.7377 17.2083 18.013 18.725C16.2877 20.2417 14.2833 21 12 21Z" fill="#141B3A"/>
</g>
<defs>
<clipPath id="clip0_670_4423">
<rect width="24" height="24" fill="white"/>
</clipPath>
</defs>
</svg>
