<svg width="96" height="96" viewBox="0 0 96 96" fill="none" xmlns="http://www.w3.org/2000/svg">
<path d="M15.6124 29.7122C14.0247 31.7125 13.7497 34.0054 14.1422 36.4182C14.9673 41.489 18.4129 43.9644 23.0136 45.2721C25.0339 45.8472 27.0967 45.5997 29.1471 45.6722C29.5821 45.6872 29.6471 45.4397 29.7296 45.1221C30.4573 42.1816 32.4226 40.1213 34.6679 38.286C34.9736 38.0357 35.3647 37.914 35.7585 37.9467C36.1523 37.9793 36.5179 38.1638 36.7782 38.4611C36.9158 38.6111 37.0214 38.7875 37.0886 38.9796C37.1558 39.1717 37.1832 39.3754 37.1692 39.5784C37.1551 39.7815 37.0999 39.9795 37.0069 40.1605C36.9139 40.3416 36.7851 40.5018 36.6282 40.6314C35.7081 41.474 34.7529 42.2767 34.0028 43.2843C32.135 45.7847 32.145 47.9776 34.0628 50.4379C34.4429 50.938 34.898 51.3631 35.298 51.8407C35.8956 52.5583 35.8506 53.4284 35.208 54.0185C35.0679 54.1558 34.9018 54.2637 34.7194 54.3359C34.537 54.4081 34.342 54.4431 34.1459 54.4389C33.9498 54.4347 33.7565 54.3914 33.5773 54.3115C33.3982 54.2315 33.2368 54.1166 33.1027 53.9735C31.7725 52.7233 30.6473 51.3031 30.0597 49.5578C29.8297 48.8802 29.5096 48.7152 28.8595 48.7577C25.324 48.9877 21.9234 48.5226 18.6804 46.9699C11.1492 43.3643 9.83404 35.4406 11.5818 30.7024C12.1809 29.0238 13.191 27.522 14.5198 26.3342C14.7473 26.1316 14.9823 25.9766 14.9923 25.5841C15.1199 20.6908 17.8753 17.7528 22.311 16.3551C24.0038 15.8225 25.424 15.1899 26.7542 13.9847C28.547 12.3645 30.8448 11.9519 33.2352 12.302C33.4995 12.3616 33.7752 12.3465 34.0314 12.2581C34.2876 12.1698 34.5141 12.0118 34.6854 11.8019C38.1435 8.17133 42.3816 7.63125 46.9873 8.88644C48.165 9.209 49.1702 9.30651 50.3529 8.81393C52.6632 7.84628 54.9961 8.10132 57.1964 9.27901C57.4346 9.40808 57.6962 9.48848 57.9657 9.51552C58.2353 9.54257 58.5076 9.51571 58.7667 9.43653C61.5919 8.78256 64.5609 9.26572 67.033 10.7817C67.6591 11.1373 68.2034 11.6208 68.6303 12.2006C69.0572 12.7805 69.3573 13.4438 69.5109 14.1473C69.6509 14.7774 69.9309 14.9199 70.511 14.9674C72.3988 15.1199 74.1841 15.6375 75.7618 16.7377C77.8847 18.2379 78.9048 20.3857 79.3024 22.8686C79.3298 23.0933 79.4029 23.3099 79.5173 23.5051C79.6317 23.7004 79.7849 23.8701 79.9675 24.0038C82.1428 25.7291 84.0506 27.6769 84.9308 30.3998C85.5036 32.136 85.4082 34.0235 84.6632 35.6931C84.4498 36.1703 84.4091 36.707 84.5482 37.2109C85.0483 39.3537 85.2858 41.524 84.7107 43.6844C83.9606 46.4848 82.0578 48.2876 79.4599 49.3553C78.6898 49.6728 78.5173 50.0829 78.4373 50.8555C77.9197 55.7513 75.9769 59.8569 71.5187 62.3573C68.2532 64.1851 64.7351 64.2351 61.1821 63.2949C60.2144 63.0449 59.7818 62.2473 60.0369 61.3821C60.2919 60.517 61.052 60.1119 62.0372 60.3595C64.2875 60.9246 66.5504 61.0096 68.7607 60.2295C72.3013 58.9793 74.0616 56.1638 75.0317 52.7508C76.0319 49.2177 75.1517 46.1048 72.7089 43.4168C71.0476 41.6331 69.043 40.2034 66.8154 39.2137C65.6803 38.6861 65.3452 37.6484 66.0103 36.7983C66.4829 36.1932 67.113 35.9757 67.8331 36.2982C72.3188 38.3686 76.0544 41.229 77.8347 46.0498C78.0547 46.6448 78.2822 46.5323 78.6848 46.3298C81.1852 45.0796 82.2804 42.8868 81.9053 39.8813C81.8845 39.5702 81.8368 39.2615 81.7628 38.9586C81.2202 37.1959 81.1752 35.5331 82.0003 33.7578C82.6004 32.4701 82.0478 31.0699 81.2977 29.8597C80.3101 28.267 78.9498 27.0343 77.4521 25.9541C77.1192 25.7334 76.8431 25.4371 76.6463 25.0896C76.4495 24.742 76.3375 24.3528 76.3194 23.9538C76.0019 20.2332 73.8365 18.2379 69.9309 17.9829C69.3408 17.9429 68.7457 17.9629 68.1556 17.9179C67.0455 17.8303 66.5379 17.2402 66.5904 16.1426C66.6679 14.4673 66.1403 13.5972 64.5901 12.9496C63.4059 12.4585 62.1339 12.2144 60.852 12.232C59.0542 12.232 57.704 13.0571 56.8514 14.6648C56.2465 15.8612 55.8853 17.1658 55.7887 18.5029C55.6787 19.5606 55.0386 20.1957 54.131 20.1232C53.2233 20.0507 52.6882 19.3581 52.7457 18.2679C52.8608 16.1126 53.4283 14.0823 54.6985 12.3195C55.1686 11.6669 54.8786 11.5694 54.3435 11.4743C52.8864 11.2058 51.3815 11.4826 50.1153 12.252C49.7873 12.4567 49.4142 12.5781 49.0285 12.6056C48.6428 12.633 48.2562 12.5657 47.9025 12.4095C45.7822 11.6094 43.5943 11.1468 41.314 11.5169C40.3105 11.677 39.3494 12.0368 38.4874 12.5749C37.6254 13.1131 36.8802 13.8186 36.2957 14.6498C35.6256 15.5575 34.883 15.8075 33.7953 15.54C30.9498 14.8399 28.632 15.65 26.9942 18.1504C26.8217 18.4497 26.5611 18.6886 26.2479 18.8345C25.9347 18.9803 25.5841 19.0261 25.2439 18.9655C21.4684 18.573 17.7178 22.306 18.0503 26.0966C18.3929 30.0222 20.5507 32.2226 24.9464 33.1277C25.2815 33.1977 25.6215 33.2428 25.9466 33.3253C26.2384 33.3905 26.5035 33.5432 26.7063 33.763C26.9091 33.9828 27.0401 34.2593 27.0817 34.5555C27.1968 35.158 27.0017 35.7456 26.4741 36.0182C25.3015 36.6233 25.3315 37.6234 25.474 38.6711C25.5515 39.2212 25.7415 39.7563 25.8715 40.3013C26.0841 41.184 25.669 41.9691 24.8564 42.2292C24.4834 42.3406 24.0815 42.301 23.7374 42.1191C23.3932 41.9372 23.1342 41.6275 23.0161 41.2565C22.441 39.6538 22.111 38.006 22.516 36.3107C22.651 35.7681 22.516 35.6331 22.0559 35.4631C19.9156 34.6755 18.0103 33.5278 16.6826 31.6075C16.2925 31.0249 15.9875 30.3748 15.6124 29.7122Z" fill="#4665C0"/>
<path d="M67.293 54.7585C66.9555 54.726 66.6104 54.7785 66.2679 54.7785C64.0525 54.7785 62.1572 54.1584 60.9845 52.0831C60.6945 51.583 60.692 51.333 61.3071 51.0829C63.7664 50.1035 65.762 48.2267 66.8904 45.8321C67.3905 44.7994 67.193 43.9193 66.3604 43.4917C65.5277 43.0642 64.6601 43.4242 64.1675 44.4294C63.6791 45.4617 62.9712 46.3749 62.0932 47.1053C61.2152 47.8356 60.1883 48.3653 59.0842 48.6575C54.431 50.0053 49.9703 49.4902 45.7497 47.0798C44.1994 46.1922 42.8592 45.0295 41.559 43.8118C41.4179 43.6651 41.2485 43.5484 41.0612 43.4686C40.8739 43.3889 40.6724 43.3478 40.4688 43.3478C40.2652 43.3478 40.0637 43.3889 39.8764 43.4686C39.6891 43.5484 39.5198 43.6651 39.3787 43.8118C38.7736 44.4344 38.7786 45.2845 39.4162 45.9921C39.6556 46.2801 39.9284 46.5386 40.2288 46.7623C40.7864 47.1448 40.8339 47.5124 40.5413 48.155C38.0835 53.4883 35.6681 58.8416 33.2402 64.19C32.4251 65.9903 33.0377 66.9554 34.9905 66.9579C37.0358 66.9579 39.0844 66.9579 41.1364 66.9579C41.1689 67.3705 40.9639 67.623 40.8414 67.9006C38.2843 73.7731 35.7273 79.6441 33.1702 85.5133C32.7526 86.4735 32.9627 87.2886 33.7028 87.7211C34.4429 88.1537 35.158 87.9712 35.8306 87.1686C36.6332 86.2159 37.4183 85.2458 38.211 84.2831C44.6303 76.4886 51.048 68.6957 57.464 60.9045C57.9641 60.3019 58.2391 59.6868 57.889 58.9442C57.539 58.2015 56.8439 58.0515 56.0813 58.0565C54.1493 58.0665 52.2165 58.0665 50.2829 58.0565C50.0328 58.0565 49.7428 58.139 49.4577 57.934C50.4079 56.1837 51.353 54.476 52.2657 52.7482C52.4607 52.3806 52.7257 52.4106 53.0383 52.4206C54.2885 52.4631 55.5387 52.5031 56.7689 52.2781C57.3865 52.1656 57.6915 52.3006 57.9666 52.9032C59.9144 57.1989 63.6975 58.099 67.3555 57.7965C67.727 57.7459 68.0669 57.5602 68.3102 57.275C68.5535 56.9897 68.6832 56.6248 68.6746 56.25C68.6659 55.8751 68.5195 55.5166 68.2633 55.2429C68.007 54.9691 67.659 54.7994 67.2855 54.766L67.293 54.7585ZM53.2583 61.167L40.9814 76.0618L40.7564 75.8718L44.7995 66.5853C45.5846 64.7801 44.9695 63.8349 42.9917 63.8349H36.9208C36.8758 63.4474 37.0883 63.1973 37.2133 62.9248C39.1586 58.6241 41.1164 54.3284 43.0467 50.0203C43.2968 49.4477 43.4843 49.2901 44.0919 49.6777C45.6867 50.6635 47.4216 51.402 49.2377 51.868C48.02 54.1184 46.8298 56.2937 45.6521 58.4816C44.7895 60.0818 45.4446 61.1495 47.2824 61.157C49.2052 61.172 51.1305 61.167 53.2583 61.167Z" fill="#4665C0"/>
<path d="M54.4335 39.3013C54.9414 40.1301 55.3549 41.0132 55.6662 41.9342C55.9562 42.8818 55.5962 43.6844 54.7636 43.997C53.9309 44.3095 53.1008 43.932 52.7633 42.9743C51.9606 40.6115 50.3504 38.9337 48.3301 37.606C45.1921 35.5432 43.3068 32.5827 42.1166 29.1047C41.9016 28.4821 41.8665 27.8895 42.3216 27.3544C43.1042 26.4217 44.4945 26.6668 44.942 27.8545C45.2511 28.7951 45.6228 29.7139 46.0547 30.6049C47.9325 34.1054 50.6629 36.3108 54.8386 36.1058C57.339 35.9882 59.2943 34.673 60.9845 32.9178C61.8497 31.9783 62.6047 30.9431 63.2349 29.8323C63.7225 29.0146 64.5676 28.7921 65.3177 29.2072C65.4975 29.3025 65.6561 29.4334 65.7837 29.5919C65.9113 29.7504 66.0053 29.9332 66.0601 30.1292C66.1148 30.3252 66.1291 30.5303 66.1021 30.732C66.075 30.9337 66.0072 31.1278 65.9028 31.3025C63.7825 35.1281 60.8795 38.0186 56.4463 39.0062C55.8287 39.1562 55.1736 39.2012 54.4335 39.3013Z" fill="#4665C0"/>
<path d="M41.1464 25.8641C40.007 25.6951 38.9276 25.2448 38.0059 24.5539C37.6309 24.2838 37.4008 24.3038 37.0558 24.6114C34.0553 27.2918 30.4798 28.1269 26.5691 27.8294C25.7001 27.756 24.8355 27.6374 23.9787 27.4743C22.8736 27.2743 22.3035 26.5367 22.4785 25.6065C22.6535 24.6764 23.4787 24.2338 24.5613 24.4389C27.0092 24.8964 29.4471 25.0489 31.8425 24.1888C32.3635 23.9955 32.8706 23.7666 33.3602 23.5037C34.0228 23.1537 34.7504 22.7836 35.1305 22.166C35.5606 21.4734 34.6504 20.9633 34.5354 20.2907C34.4579 19.8381 34.2228 19.4131 34.1203 18.9605C34.0301 18.5768 34.0902 18.173 34.2883 17.8322C34.4864 17.4914 34.8074 17.2393 35.1855 17.1277C35.5468 17.0173 35.9364 17.0458 36.2777 17.2077C36.6191 17.3696 36.8877 17.6532 37.0308 18.0028C37.1933 18.3729 37.2808 18.7705 37.4208 19.1505C37.7067 19.9784 38.184 20.727 38.8141 21.3353C39.4441 21.9436 40.209 22.3945 41.0464 22.6511C41.3115 22.7411 41.589 22.7961 41.849 22.9011C42.6617 23.2037 43.0992 23.9013 42.9642 24.6239C42.8242 25.3765 42.1091 25.9041 41.1464 25.8641Z" fill="#4665C0"/>
<path d="M62.2597 19.9832C68.9908 20.5958 72.7039 24.829 73.9916 31.0025C74.063 31.3836 73.9867 31.7776 73.778 32.1044C73.5694 32.4312 73.2441 32.6663 72.8683 32.7619C72.4925 32.8574 72.0944 32.8062 71.755 32.6188C71.4156 32.4313 71.1603 32.1215 71.0411 31.7526C70.9086 31.375 70.8361 30.975 70.7285 30.5849C69.4608 25.9717 66.7604 23.6313 62.0097 23.0412C60.877 22.9012 60.2594 22.2511 60.3744 21.3084C60.4894 20.3658 61.1621 19.8982 62.2597 19.9832Z" fill="#4665C0"/>
<path d="M45.4321 18.1479C49.0502 18.803 53.2308 20.9259 54.6385 26.2817C54.7932 26.8511 54.9109 27.4299 54.9911 28.0145C55.0625 28.4185 54.9711 28.8344 54.7369 29.1713C54.5026 29.5081 54.1445 29.7386 53.7409 29.8123C52.9133 29.9698 52.2057 29.4797 51.9656 28.5621C51.8706 28.202 51.8281 27.8295 51.7506 27.4669C51.0305 24.1414 48.9151 22.1961 45.6946 21.3484C45.3946 21.2709 45.082 21.2259 44.792 21.1209C44.4334 21.0028 44.1314 20.7559 43.9443 20.428C43.7573 20.1 43.6985 19.7144 43.7793 19.3456C43.8529 18.9743 44.0641 18.6445 44.3707 18.4224C44.6772 18.2003 45.0563 18.1022 45.4321 18.1479Z" fill="#4665C0"/>
</svg>
