<svg width="97" height="96" viewBox="0 0 97 96" fill="none" xmlns="http://www.w3.org/2000/svg">
<path d="M62.6097 41.0615C62.5472 40.2864 62.4572 39.5112 62.3472 38.7411C61.7821 34.763 61.1545 30.7949 60.6519 26.8117C60.1943 23.1912 57.839 20.5408 54.2584 19.8507C52.6901 19.575 51.0999 19.4428 49.5077 19.4556C49.6305 19.348 49.7646 19.2541 49.9077 19.1756C52.1831 18.4254 53.4633 16.7277 54.1584 14.5523C55.201 11.2293 53.4508 8.0063 50.2153 7.13367C46.6972 6.18602 43.3117 8.03381 42.5241 11.3318C41.859 14.1073 43.5042 17.5503 46.1496 18.883C46.4551 18.9954 46.73 19.1778 46.9523 19.4156C45.7821 19.5031 44.6369 19.5806 43.4942 19.6656C39.3511 20.0032 36.4431 22.8311 36.0055 26.9068C35.848 28.362 35.608 29.8072 35.413 31.2574C34.9654 34.623 34.4653 37.9835 34.1978 41.369C34.0877 42.7717 34.7453 43.7644 35.923 44.4345C37.4233 45.2871 38.8685 44.9671 40.5563 43.3768C40.3987 46.7874 40.2287 50.0529 40.1037 53.3184C39.9637 56.9615 39.6636 60.5995 39.8161 64.2476C39.8286 64.5927 39.8161 64.7802 39.4061 64.7477C39.1285 64.7227 38.846 64.7477 38.5634 64.7477C36.9807 64.7477 36.4756 65.2478 36.4756 66.7955C36.4756 73.4999 36.4756 80.2026 36.4756 86.9036C36.4756 88.4189 36.9757 88.929 38.4759 88.929C45.0853 88.929 51.6938 88.929 58.3015 88.929C59.8543 88.929 60.3418 88.4289 60.3443 86.8386C60.3443 82.3796 60.3443 77.9214 60.3443 73.464C60.3443 71.1562 60.3594 68.8483 60.3443 66.543C60.3443 65.3278 59.7568 64.7752 58.5616 64.7577C57.9765 64.7577 57.3914 64.7577 56.8913 64.7577C56.8913 57.6091 56.3637 50.568 56.1037 43.3868C56.3537 43.6219 56.4962 43.7669 56.6463 43.9069C57.1641 44.4117 57.8273 44.7411 58.5424 44.8488C59.2575 44.9565 59.9884 44.8369 60.6319 44.507C62.1021 43.8269 62.7597 42.7192 62.6097 41.0615ZM45.4495 12.642C45.4495 11.1218 46.7572 9.95411 48.45 9.97161C50.1428 9.98911 51.423 11.1743 51.3879 12.697C51.3454 14.5023 49.8227 16.3501 48.3875 16.3326C46.9523 16.3151 45.4495 14.4023 45.4495 12.642ZM56.4037 67.7907C57.1539 67.7907 57.2639 68.0282 57.2564 68.6908C57.2189 71.4012 57.2414 74.1116 57.2414 76.8221C57.2414 79.5325 57.2214 82.3054 57.2414 85.0459C57.2414 85.6684 57.1288 85.8935 56.4412 85.8885C51.0854 85.8585 45.7279 85.8585 40.3687 85.8885C39.6886 85.8885 39.5636 85.676 39.5661 85.0484C39.5911 79.5975 39.5911 74.1458 39.5661 68.6933C39.5661 68.0382 39.6661 67.7857 40.4137 67.7907C45.7479 67.8273 51.0779 67.8273 56.4037 67.7907ZM47.6524 64.3376C47.8724 61.6097 48.0749 58.8818 48.2875 56.1513L48.3775 56.1688C48.5825 58.8668 48.7675 61.5672 49.0101 64.2601C49.0651 64.8702 48.7125 64.7977 48.41 64.7302C48.1399 64.6727 47.5824 65.0927 47.6449 64.3376H47.6524ZM59.1542 41.8041C58.8391 41.8291 58.7466 41.6216 58.6966 41.339C58.4616 39.9913 58.1965 38.6461 57.964 37.2984C57.3822 34.0829 56.7988 30.8674 56.2137 27.6519C56.1862 27.4994 56.1387 27.3493 56.1062 27.1968C55.9187 26.3392 55.3561 25.9191 54.5059 25.9241C53.7033 25.9241 53.1082 26.5867 53.0757 27.4718C53.0157 29.1221 52.9657 30.7749 52.9482 32.4276C52.9057 36.7908 52.7982 41.154 53.0082 45.5172C53.2716 50.9664 53.5333 56.4147 53.7933 61.8622C53.8158 62.3298 53.8333 62.7974 53.8408 63.2649C53.8408 63.8775 53.7383 64.3951 52.9532 64.4051C52.1681 64.4151 52.0205 63.905 51.9805 63.3C51.7305 59.4769 51.4805 55.6513 51.2179 51.8282C51.0212 49.0311 50.797 46.2356 50.5453 43.4418C50.4253 42.1191 49.9427 41.7341 48.6025 41.7266H47.9499C46.7272 41.7416 46.2171 42.1416 46.1121 43.3443C45.8021 46.8449 45.5179 50.3546 45.2595 53.8735C45.032 56.9815 44.8619 60.0945 44.6669 63.2024C44.6269 63.83 44.5219 64.4126 43.6917 64.4026C42.7641 64.3901 42.7766 63.7225 42.8066 63.0824C43.0066 58.5667 43.1767 54.051 43.4317 49.5378C43.8468 42.2167 43.7793 34.893 43.5642 27.5694C43.5367 26.6167 42.9616 25.9716 42.129 25.9141C41.3439 25.8616 40.6838 26.3717 40.5212 27.2868C39.8912 30.8099 39.2936 34.3379 38.686 37.866C38.4959 38.9686 38.3059 40.0738 38.1234 41.179C38.0709 41.5015 38.0209 41.8766 37.6233 41.8191C37.1682 41.7541 37.3258 41.349 37.3733 41.0565C37.7783 37.971 38.2034 34.8855 38.5959 31.805C38.786 30.3223 38.9385 28.8346 39.0685 27.3443C39.2736 25.024 40.9338 23.1637 43.2317 22.8436C46.5998 22.3586 50.0201 22.3586 53.3883 22.8436C55.7236 23.1887 57.3414 24.8564 57.5739 27.2018C58.024 31.73 58.7216 36.2207 59.4317 40.7039C59.4617 40.8889 59.4692 41.0765 59.4942 41.2615C59.5092 41.534 59.4842 41.7766 59.1467 41.8041H59.1542Z" fill="#4665C0"/>
<path d="M84.7982 51.262C78.3172 51.262 71.8353 51.262 65.3526 51.262C63.6349 51.262 63.1873 51.707 63.1873 53.4098V86.2274C63.1873 88.0202 63.6024 88.4428 65.3626 88.4453H84.8082C86.6085 88.4453 87.021 88.0377 87.0235 86.2624V53.4448C87.0135 51.6945 86.581 51.262 84.7982 51.262ZM83.968 84.4846C83.968 85.2023 83.813 85.4173 83.0604 85.4123C77.7596 85.3773 72.4596 85.3773 67.1604 85.4123C66.4103 85.4123 66.2353 85.2048 66.2403 84.4797C66.2728 79.5839 66.2578 74.6906 66.2578 69.7949C66.2578 64.8991 66.2753 60.0658 66.2403 55.2026C66.2403 54.49 66.4253 54.3324 67.1179 54.3349C72.4521 54.3666 77.7862 54.3666 83.1204 54.3349C83.833 54.3349 83.9781 54.52 83.9755 55.2076C83.9489 64.9674 83.9464 74.7265 83.968 84.4846Z" fill="#4665C0"/>
<path d="M31.7549 71.2612C25.0872 71.2612 18.4195 71.2612 11.7518 71.2612C10.3315 71.2612 9.81896 71.7613 9.81645 73.1515C9.81645 77.7622 9.81645 82.373 9.81645 86.9837C9.81645 88.4364 10.3165 88.9115 11.8018 88.9115C15.1039 88.9115 18.4061 88.9115 21.7083 88.9115C25.0105 88.9115 28.3127 88.9115 31.6149 88.9115C33.1576 88.9115 33.6452 88.4389 33.6452 86.9337C33.6452 82.353 33.6452 77.7689 33.6452 73.1815C33.6452 71.7913 33.1426 71.2737 31.7549 71.2612ZM29.7696 85.8785C27.0942 85.841 24.4162 85.8635 21.7383 85.8635C19.0604 85.8635 16.3225 85.8485 13.6145 85.8635C13.067 85.8635 12.8644 85.766 12.8644 85.1584C12.8969 81.7654 12.8894 78.3723 12.8644 74.9793C12.8644 74.4792 12.9794 74.2867 13.527 74.2867C18.9762 74.3067 24.4246 74.3067 29.8721 74.2867C30.4822 74.2867 30.5847 74.5017 30.5797 75.0368C30.5597 78.3698 30.5547 81.7004 30.5797 85.0384C30.5972 85.6985 30.4322 85.8985 29.7671 85.8885L29.7696 85.8785Z" fill="#4665C0"/>
</svg>
